<?xml version="1.0" encoding="UTF-8" ?>
<!DOCTYPE svg PUBLIC "-//W3C//DTD SVG 1.1//EN" "http://www.w3.org/Graphics/SVG/1.1/DTD/svg11.dtd">
<svg width="220pt" height="220pt" viewBox="0 0 220 220" version="1.1" xmlns="http://www.w3.org/2000/svg">
<path fill="#d5bc64" d=" M 0.00 0.00 L 45.22 0.00 C 45.49 3.07 42.46 7.53 45.26 9.66 C 52.83 10.63 60.55 8.91 67.02 4.87 C 67.22 3.19 66.70 1.56 66.15 0.00 L 78.80 0.00 C 77.71 3.71 83.35 10.12 79.16 12.75 C 78.51 9.51 76.26 6.37 73.18 5.08 C 70.27 7.55 68.73 13.00 72.66 15.03 C 72.52 15.36 72.23 16.00 72.08 16.33 C 66.45 19.52 67.45 10.97 64.07 9.87 C 62.78 9.86 61.49 9.94 60.20 10.10 C 52.86 11.92 44.59 10.60 39.06 17.02 C 38.87 14.04 41.98 9.12 38.01 7.90 C 34.80 9.67 32.17 12.34 28.97 14.13 C 25.70 13.52 26.35 6.15 22.79 8.82 C 18.45 13.50 11.85 16.50 5.46 14.66 C 4.09 12.21 2.76 9.58 0.00 8.45 L 0.00 0.00 Z" />
<path fill="#d6b346" d=" M 45.22 0.00 L 66.15 0.00 C 66.70 1.56 67.22 3.19 67.02 4.87 C 60.55 8.91 52.83 10.63 45.26 9.66 C 42.46 7.53 45.49 3.07 45.22 0.00 Z" />
<path fill="#d3c08b" d=" M 78.80 0.00 L 94.07 0.00 C 95.17 6.93 93.11 13.21 90.72 19.49 C 90.55 22.48 90.75 25.56 88.87 28.15 C 87.93 27.72 87.00 27.29 86.08 26.84 C 86.28 22.76 83.19 19.78 81.26 16.49 C 81.33 12.46 76.70 14.22 73.89 13.88 C 75.36 12.75 77.44 13.18 79.16 12.75 C 83.35 10.12 77.71 3.71 78.80 0.00 Z" />
<path fill="#e4dbb4" d=" M 94.07 0.00 L 220.00 0.00 L 220.00 173.12 C 217.68 172.65 215.37 172.15 213.04 171.81 C 213.01 168.42 213.21 165.01 212.40 161.69 C 211.81 156.06 208.99 150.98 208.61 145.31 C 208.59 142.44 209.62 139.39 208.21 136.76 C 207.97 136.26 207.50 135.26 207.26 134.76 C 206.93 126.48 204.87 119.61 198.92 113.82 L 199.13 113.28 C 198.13 104.23 195.94 94.39 196.34 84.77 C 196.40 75.83 187.95 69.46 187.50 60.80 C 189.83 51.57 190.25 42.16 188.26 32.76 C 187.89 30.66 187.00 28.72 186.22 26.76 C 185.42 24.60 184.64 22.43 183.93 20.24 C 183.75 18.34 183.40 16.42 182.35 14.79 C 179.74 7.69 169.07 10.86 165.36 15.34 C 160.97 21.20 155.25 25.79 150.25 31.09 C 151.09 27.52 147.42 23.78 144.02 25.90 C 147.92 16.52 135.38 14.72 132.52 21.82 C 128.31 14.55 123.44 23.38 121.37 27.67 C 119.90 26.41 114.21 30.04 113.84 26.48 C 114.64 23.52 115.55 20.43 114.18 17.53 C 114.26 15.05 113.22 11.90 110.10 13.01 C 103.71 16.54 105.28 30.50 95.19 28.01 C 95.42 24.30 96.06 18.31 90.72 19.49 C 93.11 13.21 95.17 6.93 94.07 0.00 Z" />
<path fill="#c49b4f" d=" M 73.18 5.08 C 76.26 6.37 78.51 9.51 79.16 12.75 C 77.44 13.18 75.36 12.75 73.89 13.88 C 73.59 14.17 72.97 14.74 72.66 15.03 C 68.73 13.00 70.27 7.55 73.18 5.08 Z" />
<path fill="#d5ba54" d=" M 22.79 8.82 C 26.35 6.15 25.70 13.52 28.97 14.13 C 32.17 12.34 34.80 9.67 38.01 7.90 C 41.98 9.12 38.87 14.04 39.06 17.02 C 37.26 23.65 29.32 21.48 24.22 22.43 C 16.37 25.24 8.20 26.84 0.00 28.23 L 0.00 8.45 C 2.76 9.58 4.09 12.21 5.46 14.66 C 11.85 16.50 18.45 13.50 22.79 8.82 Z" />
<path fill="#e2cc72" d=" M 39.06 17.02 C 44.59 10.60 52.86 11.92 60.20 10.10 C 55.31 11.70 50.81 15.32 51.86 21.09 C 48.19 21.78 44.51 21.43 41.06 20.03 C 38.02 21.71 36.19 25.50 32.03 24.96 C 21.19 26.44 10.63 29.37 0.00 31.87 L 0.00 28.23 C 8.20 26.84 16.37 25.24 24.22 22.43 C 29.32 21.48 37.26 23.65 39.06 17.02 Z" />
<path fill="#f3fcf8" d=" M 60.20 10.10 C 61.49 9.94 62.78 9.86 64.07 9.87 C 66.76 13.19 62.08 15.65 63.37 19.04 C 61.49 24.79 72.49 30.08 70.82 22.28 C 71.03 20.26 71.41 18.25 72.08 16.33 C 72.23 16.00 72.52 15.36 72.66 15.03 C 72.97 14.74 73.59 14.17 73.89 13.88 C 76.70 14.22 81.33 12.46 81.26 16.49 C 74.75 17.94 78.02 27.67 83.66 28.00 C 84.96 28.04 87.57 28.11 88.87 28.15 C 90.75 25.56 90.55 22.48 90.72 19.49 C 96.06 18.31 95.42 24.30 95.19 28.01 C 105.28 30.50 103.71 16.54 110.10 13.01 C 113.22 11.90 114.26 15.05 114.18 17.53 C 113.46 20.48 112.28 23.63 113.84 26.48 C 114.21 30.04 119.90 26.41 121.37 27.67 C 123.44 23.38 128.31 14.55 132.52 21.82 C 135.38 14.72 147.92 16.52 144.02 25.90 C 143.99 26.36 143.91 27.27 143.87 27.73 C 142.38 29.90 140.78 32.01 138.93 33.90 C 134.72 34.71 129.35 33.58 125.91 35.98 C 122.55 40.75 127.74 43.73 132.57 41.93 C 132.85 42.20 133.39 42.73 133.66 43.00 C 134.59 44.39 136.43 44.30 137.85 43.90 C 142.93 46.12 145.76 41.60 150.09 40.85 C 149.85 42.54 149.58 44.23 149.13 45.87 C 145.36 48.63 139.10 48.50 136.97 52.89 C 140.01 54.88 144.91 54.74 147.96 52.72 C 147.62 54.72 147.74 56.75 148.14 58.73 C 147.88 58.94 147.35 59.35 147.09 59.55 C 145.60 60.31 144.14 61.11 142.69 61.92 C 139.84 61.95 137.03 61.96 134.20 62.02 C 129.49 61.29 127.43 62.97 132.80 64.50 C 133.79 66.43 135.62 67.13 137.71 67.13 L 138.36 68.07 C 133.26 68.96 128.09 69.14 122.93 69.09 C 118.69 64.64 110.68 66.44 108.01 60.04 C 106.56 56.93 107.23 50.11 102.06 50.90 C 101.03 59.01 104.58 67.72 112.80 70.17 L 113.57 70.67 C 112.87 71.83 112.15 72.98 111.38 74.10 C 111.03 74.36 110.34 74.89 110.00 75.15 C 105.64 75.32 102.94 71.30 98.99 70.11 C 96.10 67.72 95.43 59.37 91.10 61.58 C 90.13 66.03 85.44 64.88 81.89 65.15 C 79.57 64.26 76.23 61.58 74.70 64.99 C 73.86 63.34 73.15 61.62 72.44 59.92 C 70.97 62.22 70.40 64.94 69.23 67.39 C 65.50 64.76 64.49 56.97 58.81 59.84 C 55.55 59.48 55.79 63.05 54.88 65.23 C 49.19 60.12 47.38 49.78 53.18 44.15 C 55.68 41.52 50.95 40.58 49.01 40.88 C 48.03 40.72 47.05 40.54 46.08 40.35 C 43.79 38.56 41.45 36.45 41.72 33.25 C 41.89 30.38 42.08 27.52 42.29 24.66 C 45.95 26.93 47.64 32.23 52.69 32.21 C 52.43 28.50 51.99 24.81 51.86 21.09 C 50.81 15.32 55.31 11.70 60.20 10.10 Z" />
<path fill="#cad3a0" d=" M 64.07 9.87 C 67.45 10.97 66.45 19.52 72.08 16.33 C 71.41 18.25 71.03 20.26 70.82 22.28 C 67.91 21.10 67.28 15.58 63.37 19.04 C 62.08 15.65 66.76 13.19 64.07 9.87 Z" />
<path fill="#cbb071" d=" M 165.36 15.34 C 169.07 10.86 179.74 7.69 182.35 14.79 C 180.54 13.65 178.68 11.73 176.54 13.36 C 163.22 14.47 160.72 32.31 147.97 34.98 L 148.06 34.01 L 148.20 33.18 C 148.88 32.49 149.57 31.79 150.25 31.09 C 155.25 25.79 160.97 21.20 165.36 15.34 Z" />
<path fill="#b1914f" d=" M 176.54 13.36 C 178.68 11.73 180.54 13.65 182.35 14.79 C 183.40 16.42 183.75 18.34 183.93 20.24 C 182.13 18.64 181.03 16.19 178.95 15.00 C 175.59 16.78 174.40 21.04 171.34 23.33 C 171.95 24.72 173.96 25.72 173.41 27.42 C 172.72 33.52 162.69 31.24 162.10 37.55 C 159.92 39.67 157.60 41.71 154.87 43.08 C 155.82 39.76 156.92 36.48 157.10 32.99 C 153.08 33.86 151.25 37.24 150.09 40.85 C 145.76 41.60 142.93 46.12 137.85 43.90 L 138.01 43.12 C 139.30 42.03 140.66 41.01 142.02 40.00 C 144.53 39.01 146.24 36.95 147.97 34.98 C 160.72 32.31 163.22 14.47 176.54 13.36 Z" />
<path fill="#9e743a" d=" M 171.34 23.33 C 174.40 21.04 175.59 16.78 178.95 15.00 C 181.03 16.19 182.13 18.64 183.93 20.24 C 184.64 22.43 185.42 24.60 186.22 26.76 C 186.22 34.47 187.41 42.15 186.90 49.86 C 182.88 53.85 177.91 47.76 175.75 54.39 C 174.10 49.19 181.50 41.52 174.96 37.98 C 172.62 33.70 164.08 39.70 171.20 39.36 C 166.28 40.23 152.08 47.26 162.38 48.95 C 163.15 49.37 163.92 49.79 164.68 50.23 C 161.91 56.01 156.89 60.23 153.74 65.76 C 153.30 65.80 152.43 65.87 151.99 65.90 C 149.56 63.98 146.58 63.01 143.66 62.10 C 145.95 62.11 149.48 62.62 147.09 59.55 C 147.35 59.35 147.88 58.94 148.14 58.73 C 150.22 57.31 149.91 53.74 148.34 52.06 C 148.58 49.99 148.87 47.94 149.13 45.87 C 149.58 44.23 149.85 42.54 150.09 40.85 C 151.25 37.24 153.08 33.86 157.10 32.99 C 156.92 36.48 155.82 39.76 154.87 43.08 C 157.60 41.71 159.92 39.67 162.10 37.55 C 162.69 31.24 172.72 33.52 173.41 27.42 C 173.96 25.72 171.95 24.72 171.34 23.33 Z" />
<path fill="#b28c4d" d=" M 83.66 28.00 C 78.02 27.67 74.75 17.94 81.26 16.49 C 83.19 19.78 86.28 22.76 86.08 26.84 C 85.47 27.13 84.26 27.71 83.66 28.00 Z" />
<path fill="#48e0d6" d=" M 63.37 19.04 C 67.28 15.58 67.91 21.10 70.82 22.28 C 72.49 30.08 61.49 24.79 63.37 19.04 Z" />
<path fill="#c5c3b9" d=" M 113.84 26.48 C 112.28 23.63 113.46 20.48 114.18 17.53 C 114.00 20.51 113.95 23.50 113.84 26.48 Z" />
<path fill="#56543f" d=" M 114.18 17.53 C 115.55 20.43 114.64 23.52 113.84 26.48 C 113.95 23.50 114.00 20.51 114.18 17.53 Z" />
<path fill="#ead782" d=" M 32.03 24.96 C 36.19 25.50 38.02 21.71 41.06 20.03 C 44.51 21.43 48.19 21.78 51.86 21.09 C 51.99 24.81 52.43 28.50 52.69 32.21 C 47.64 32.23 45.95 26.93 42.29 24.66 C 34.40 21.11 35.54 34.05 36.69 38.44 C 31.26 37.96 34.37 34.32 35.11 30.93 C 23.28 34.15 12.67 42.31 0.00 43.23 L 0.00 31.87 C 10.63 29.37 21.19 26.44 32.03 24.96 Z" />
<path fill="#89e3bc" d=" M 36.69 38.44 C 35.54 34.05 34.40 21.11 42.29 24.66 C 42.08 27.52 41.89 30.38 41.72 33.25 C 41.34 32.02 41.56 22.17 38.12 26.26 C 37.60 31.67 37.28 37.26 40.02 42.11 C 39.14 41.42 38.25 40.73 37.35 40.05 C 37.19 39.65 36.86 38.84 36.69 38.44 Z" />
<path fill="#35e8df" d=" M 38.12 26.26 C 41.56 22.17 41.34 32.02 41.72 33.25 C 41.45 36.45 43.79 38.56 46.08 40.35 C 44.30 45.09 41.02 49.83 42.77 55.14 C 42.64 58.61 50.39 60.55 45.96 53.02 C 45.30 48.69 46.48 44.36 49.01 40.88 C 50.95 40.58 55.68 41.52 53.18 44.15 C 47.38 49.78 49.19 60.12 54.88 65.23 C 56.17 66.53 57.27 68.07 57.08 70.00 C 51.90 71.24 50.07 64.72 45.61 63.45 C 41.78 62.49 39.83 58.97 38.05 55.78 C 37.95 53.13 37.89 50.48 37.88 47.83 C 38.54 45.91 39.52 44.09 40.02 42.11 C 37.28 37.26 37.60 31.67 38.12 26.26 Z" />
<path fill="#7fe3cc" d=" M 144.02 25.90 C 147.42 23.78 151.09 27.52 150.25 31.09 C 149.57 31.79 148.88 32.49 148.20 33.18 C 149.38 28.16 148.13 25.76 143.87 27.73 C 143.91 27.27 143.99 26.36 144.02 25.90 Z" />
<path fill="#362d1b" d=" M 83.66 28.00 C 84.26 27.71 85.47 27.13 86.08 26.84 C 87.00 27.29 87.93 27.72 88.87 28.15 C 87.57 28.11 84.96 28.04 83.66 28.00 Z" />
<path fill="#2deee9" d=" M 143.87 27.73 C 148.13 25.76 149.38 28.16 148.20 33.18 L 148.06 34.01 C 145.90 35.86 143.86 37.84 142.02 40.00 C 138.79 40.16 135.66 41.01 132.57 41.93 C 127.74 43.73 122.55 40.75 125.91 35.98 C 130.05 35.58 135.52 37.23 138.93 33.90 C 140.78 32.01 142.38 29.90 143.87 27.73 Z" />
<path fill="#c19e64" d=" M 186.22 26.76 C 187.00 28.72 187.89 30.66 188.26 32.76 C 187.30 40.79 189.71 49.67 186.14 57.22 C 186.31 54.76 186.69 52.32 186.90 49.86 C 187.41 42.15 186.22 34.47 186.22 26.76 Z" />
<path fill="#e0c76c" d=" M 0.00 43.23 C 12.67 42.31 23.28 34.15 35.11 30.93 C 34.37 34.32 31.26 37.96 36.69 38.44 C 36.86 38.84 37.19 39.65 37.35 40.05 C 35.74 40.34 34.12 40.59 32.50 40.88 C 21.47 39.25 10.76 44.42 0.00 46.27 L 0.00 43.23 Z" />
<path fill="#e3ce99" d=" M 188.26 32.76 C 190.25 42.16 189.83 51.57 187.50 60.80 C 187.95 69.46 196.40 75.83 196.34 84.77 C 195.94 94.39 198.13 104.23 199.13 113.28 C 194.12 111.95 194.92 105.06 193.72 101.29 C 193.42 93.66 194.24 85.69 191.47 78.42 C 188.64 72.84 184.67 67.37 184.73 60.83 C 185.13 59.60 185.66 58.42 186.14 57.22 C 189.71 49.67 187.30 40.79 188.26 32.76 Z" />
<path fill="#98f5f5" d=" M 125.91 35.98 C 129.35 33.58 134.72 34.71 138.93 33.90 C 135.52 37.23 130.05 35.58 125.91 35.98 Z" />
<path fill="#70c79a" d=" M 142.02 40.00 C 143.86 37.84 145.90 35.86 148.06 34.01 L 147.97 34.98 C 146.24 36.95 144.53 39.01 142.02 40.00 Z" />
<path fill="#886035" d=" M 171.20 39.36 C 164.08 39.70 172.62 33.70 174.96 37.98 C 181.50 41.52 174.10 49.19 175.75 54.39 C 172.85 60.76 168.26 66.81 161.98 70.08 C 160.88 69.67 160.04 68.81 159.20 68.03 C 169.62 65.53 174.66 54.45 173.87 44.25 C 171.09 41.84 166.75 45.10 163.23 44.45 C 160.60 44.35 162.06 47.46 162.38 48.95 C 152.08 47.26 166.28 40.23 171.20 39.36 Z" />
<path fill="#4de8e8" d=" M 77.26 38.17 C 83.96 36.56 77.47 44.48 81.74 46.26 C 84.33 48.82 91.39 46.56 89.88 51.77 C 83.13 56.31 68.73 45.15 77.26 38.17 Z" />
<path fill="#ccae52" d=" M 0.00 46.27 C 10.76 44.42 21.47 39.25 32.50 40.88 C 22.04 44.79 10.97 47.19 0.00 49.25 L 0.00 46.27 Z" />
<path fill="#aa8d43" d=" M 32.50 40.88 C 34.12 40.59 35.74 40.34 37.35 40.05 C 38.25 40.73 39.14 41.42 40.02 42.11 C 39.52 44.09 38.54 45.91 37.88 47.83 C 37.15 54.26 29.36 53.58 24.73 55.85 C 14.88 59.23 9.81 69.37 0.00 72.42 L 0.00 49.25 C 10.97 47.19 22.04 44.79 32.50 40.88 Z" />
<path fill="#9afcfc" d=" M 46.08 40.35 C 47.05 40.54 48.03 40.72 49.01 40.88 C 46.48 44.36 45.30 48.69 45.96 53.02 C 50.39 60.55 42.64 58.61 42.77 55.14 C 41.02 49.83 44.30 45.09 46.08 40.35 Z" />
<path fill="#6cc3ae" d=" M 132.57 41.93 C 135.66 41.01 138.79 40.16 142.02 40.00 C 140.66 41.01 139.30 42.03 138.01 43.12 C 136.92 41.71 134.73 41.39 133.66 43.00 C 133.39 42.73 132.85 42.20 132.57 41.93 Z" />
<path fill="#4ee9e7" d=" M 108.22 41.12 C 113.57 39.07 110.78 49.81 117.68 46.35 C 124.90 51.74 111.21 52.11 108.31 48.72 C 108.12 46.30 105.72 42.92 108.22 41.12 Z" />
<path fill="#172220" d=" M 133.66 43.00 C 134.73 41.39 136.92 41.71 138.01 43.12 L 137.85 43.90 C 136.43 44.30 134.59 44.39 133.66 43.00 Z" />
<path fill="#55381c" d=" M 163.23 44.45 C 166.75 45.10 171.09 41.84 173.87 44.25 C 174.66 54.45 169.62 65.53 159.20 68.03 C 157.96 66.18 155.80 65.87 153.74 65.76 C 156.89 60.23 161.91 56.01 164.68 50.23 C 163.92 49.79 163.15 49.37 162.38 48.95 C 162.06 47.46 160.60 44.35 163.23 44.45 Z" />
<path fill="#45e3dd" d=" M 136.97 52.89 C 139.10 48.50 145.36 48.63 149.13 45.87 C 148.87 47.94 148.58 49.99 148.34 52.06 L 147.96 52.72 C 144.91 54.74 140.01 54.88 136.97 52.89 Z" />
<path fill="#b29a54" d=" M 24.73 55.85 C 29.36 53.58 37.15 54.26 37.88 47.83 C 37.89 50.48 37.95 53.13 38.05 55.78 L 38.06 56.75 C 29.00 69.14 14.12 73.02 0.00 76.27 L 0.00 72.42 C 9.81 69.37 14.88 59.23 24.73 55.85 Z" />
<path fill="#b1833b" d=" M 175.75 54.39 C 177.91 47.76 182.88 53.85 186.90 49.86 C 186.69 52.32 186.31 54.76 186.14 57.22 C 185.66 58.42 185.13 59.60 184.73 60.83 C 184.24 63.78 183.89 66.79 184.01 69.79 C 184.06 71.75 184.26 73.70 184.61 75.63 C 184.26 82.37 189.99 95.22 180.11 96.81 C 174.42 88.87 170.33 77.97 161.08 73.76 C 157.52 71.81 154.35 69.23 151.99 65.90 C 152.43 65.87 153.30 65.80 153.74 65.76 C 155.80 65.87 157.96 66.18 159.20 68.03 C 160.04 68.81 160.88 69.67 161.98 70.08 C 168.26 66.81 172.85 60.76 175.75 54.39 Z" />
<path fill="#39e8e3" d=" M 102.06 50.90 C 107.23 50.11 106.56 56.93 108.01 60.04 C 110.68 66.44 118.69 64.64 122.93 69.09 C 127.19 69.51 135.53 72.38 138.36 68.07 C 143.19 65.03 142.39 70.44 140.19 73.27 C 130.54 74.47 121.54 72.79 112.80 70.17 C 104.58 67.72 101.03 59.01 102.06 50.90 Z" />
<path fill="#adad95" d=" M 148.34 52.06 C 149.91 53.74 150.22 57.31 148.14 58.73 C 147.74 56.75 147.62 54.72 147.96 52.72 L 148.34 52.06 Z" />
<path fill="#aed2ac" d=" M 38.05 55.78 C 39.83 58.97 41.78 62.49 45.61 63.45 C 50.07 64.72 51.90 71.24 57.08 70.00 C 57.27 68.07 56.17 66.53 54.88 65.23 C 55.79 63.05 55.55 59.48 58.81 59.84 C 58.53 64.51 62.00 68.02 65.33 70.79 C 72.18 74.39 69.76 69.82 69.23 67.39 C 70.40 64.94 70.97 62.22 72.44 59.92 C 73.15 61.62 73.86 63.34 74.70 64.99 C 75.71 66.74 76.00 68.74 76.24 70.72 C 74.63 70.35 72.53 69.54 72.75 72.09 C 70.59 72.38 68.43 72.62 66.27 72.81 C 64.49 71.71 62.53 72.71 60.72 73.12 C 59.06 73.01 55.73 72.80 54.06 72.70 C 50.59 65.76 41.74 65.47 38.23 58.91 C 38.19 58.37 38.11 57.29 38.06 56.75 L 38.05 55.78 Z" />
<path fill="#c1aa6c" d=" M 0.00 76.27 C 14.12 73.02 29.00 69.14 38.06 56.75 C 38.11 57.29 38.19 58.37 38.23 58.91 C 33.80 62.93 30.90 68.44 26.96 72.99 C 18.51 76.75 8.85 76.51 0.00 79.05 L 0.00 76.27 Z" />
<path fill="#dac084" d=" M 38.23 58.91 C 41.74 65.47 50.59 65.76 54.06 72.70 C 52.53 74.17 49.03 76.62 50.76 78.89 C 51.05 79.19 51.65 79.79 51.95 80.09 L 51.90 80.87 C 51.95 87.70 49.64 86.57 49.74 81.98 C 45.25 82.87 46.90 89.93 50.31 91.70 C 53.43 94.52 57.03 91.54 59.79 89.79 C 65.02 87.94 61.47 94.08 59.97 96.14 C 67.60 95.05 75.09 88.02 82.26 88.67 C 84.31 91.59 84.27 94.95 81.57 97.39 C 81.00 103.99 85.86 108.97 88.61 114.41 C 92.11 118.89 97.20 115.87 98.45 111.25 C 102.11 111.27 105.58 112.74 108.97 113.97 C 111.36 114.63 113.91 114.83 116.20 115.83 C 112.21 116.86 108.14 115.86 104.11 116.08 C 100.43 117.29 98.89 121.21 96.80 124.13 C 92.79 126.72 87.38 123.30 82.66 124.57 C 75.07 114.11 64.76 101.13 49.40 104.87 C 48.34 99.02 38.21 105.10 40.61 97.11 C 38.77 90.46 48.11 87.05 46.75 80.32 C 42.81 74.41 35.75 76.18 32.20 81.18 C 27.26 85.56 27.61 78.38 23.63 77.28 C 15.58 76.75 7.87 79.88 0.00 81.07 L 0.00 79.05 C 8.85 76.51 18.51 76.75 26.96 72.99 C 30.90 68.44 33.80 62.93 38.23 58.91 Z" />
<path fill="#3be9e0" d=" M 58.81 59.84 C 64.49 56.97 65.50 64.76 69.23 67.39 C 69.76 69.82 72.18 74.39 65.33 70.79 C 62.00 68.02 58.53 64.51 58.81 59.84 Z" />
<path fill="#211913" d=" M 142.69 61.92 C 144.14 61.11 145.60 60.31 147.09 59.55 C 149.48 62.62 145.95 62.11 143.66 62.10 L 142.69 61.92 Z" />
<path fill="#91f2f2" d=" M 91.10 61.58 C 95.43 59.37 96.10 67.72 98.99 70.11 C 94.48 69.19 95.11 63.14 91.10 61.58 Z" />
<path fill="#daba78" d=" M 184.01 69.79 C 183.89 66.79 184.24 63.78 184.73 60.83 C 184.67 67.37 188.64 72.84 191.47 78.42 C 194.24 85.69 193.42 93.66 193.72 101.29 C 190.79 95.27 192.86 88.11 189.96 82.03 C 188.70 77.59 185.30 74.22 184.01 69.79 Z" />
<path fill="#80f1ee" d=" M 81.89 65.15 C 85.44 64.88 90.13 66.03 91.10 61.58 C 92.83 67.77 85.73 66.77 81.89 65.15 Z" />
<path fill="#2aede6" d=" M 91.10 61.58 C 95.11 63.14 94.48 69.19 98.99 70.11 C 102.94 71.30 105.64 75.32 110.00 75.15 C 107.70 87.04 91.91 63.26 91.95 75.98 C 87.67 77.15 82.96 77.63 79.87 73.99 C 78.67 72.88 77.44 71.81 76.24 70.72 C 76.00 68.74 75.71 66.74 74.70 64.99 C 76.23 61.58 79.57 64.26 81.89 65.15 C 85.73 66.77 92.83 67.77 91.10 61.58 Z" />
<path fill="#3b372e" d=" M 132.80 64.50 C 127.43 62.97 129.49 61.29 134.20 62.02 C 133.85 62.64 133.15 63.88 132.80 64.50 Z" />
<path fill="#cbaa5f" d=" M 134.20 62.02 C 137.03 61.96 139.84 61.95 142.69 61.92 L 143.66 62.10 C 146.58 63.01 149.56 63.98 151.99 65.90 C 154.35 69.23 157.52 71.81 161.08 73.76 C 165.00 79.49 169.63 85.01 169.65 92.38 C 174.32 99.48 178.36 108.51 185.87 112.98 C 186.49 110.74 186.94 108.19 189.53 107.44 C 193.11 105.64 191.67 101.31 190.82 98.31 C 189.96 90.53 188.94 82.35 184.61 75.63 C 184.26 73.70 184.06 71.75 184.01 69.79 C 185.30 74.22 188.70 77.59 189.96 82.03 C 192.86 88.11 190.79 95.27 193.72 101.29 C 194.92 105.06 194.12 111.95 199.13 113.28 L 198.92 113.82 C 192.08 116.37 197.60 127.39 189.89 130.39 C 185.79 127.30 188.74 121.10 184.79 117.98 C 177.77 122.18 175.87 130.27 173.54 137.48 C 170.86 141.25 174.33 143.60 176.19 146.10 C 174.59 148.18 173.13 150.39 171.28 152.26 C 167.50 150.46 170.38 148.20 171.98 145.93 C 169.41 140.43 171.72 134.20 171.41 128.36 C 174.98 124.31 180.62 118.96 177.99 113.08 C 177.16 105.85 169.65 102.72 165.67 97.34 C 159.82 94.98 153.13 97.23 147.25 94.84 C 140.70 92.18 134.17 97.54 127.68 95.28 C 134.07 93.90 133.32 85.09 140.61 84.71 C 137.15 80.54 146.85 79.69 142.16 73.98 L 142.06 73.08 C 145.62 69.91 144.02 62.56 137.71 67.13 C 135.62 67.13 133.79 66.43 132.80 64.50 C 133.15 63.88 133.85 62.64 134.20 62.02 Z" />
<path fill="#774c11" d=" M 181.03 65.22 C 184.00 65.95 177.59 70.75 175.00 70.02 C 174.15 66.65 179.00 66.51 181.03 65.22 Z" />
<path fill="#a5dfb9" d=" M 137.71 67.13 C 144.02 62.56 145.62 69.91 142.06 73.08 C 141.59 73.12 140.66 73.22 140.19 73.27 C 142.39 70.44 143.19 65.03 138.36 68.07 L 137.71 67.13 Z" />
<path fill="#abfffe" d=" M 122.93 69.09 C 128.09 69.14 133.26 68.96 138.36 68.07 C 135.53 72.38 127.19 69.51 122.93 69.09 Z" />
<path fill="#b6b07c" d=" M 72.75 72.09 C 72.53 69.54 74.63 70.35 76.24 70.72 C 77.44 71.81 78.67 72.88 79.87 73.99 C 81.16 80.51 87.78 78.93 91.95 75.98 C 96.64 71.12 100.27 79.73 105.41 79.59 C 109.62 82.09 113.16 77.65 111.38 74.10 C 112.15 72.98 112.87 71.83 113.57 70.67 C 115.14 71.20 116.54 72.10 117.66 73.33 C 118.26 74.69 119.72 74.82 121.01 75.04 C 123.91 79.74 118.68 76.81 116.03 76.22 C 115.35 79.26 113.89 81.51 110.64 82.12 C 107.02 83.75 104.17 86.76 100.33 87.96 C 99.79 87.68 98.70 87.10 98.16 86.81 C 98.11 83.74 97.31 80.75 95.70 78.13 C 91.47 78.50 87.42 80.20 83.11 80.02 C 79.55 77.50 76.99 73.60 72.75 72.09 Z" />
<path fill="#68dfc2" d=" M 112.80 70.17 C 121.54 72.79 130.54 74.47 140.19 73.27 C 132.74 74.20 125.09 74.58 117.66 73.33 C 116.54 72.10 115.14 71.20 113.57 70.67 L 112.80 70.17 Z" />
<path fill="#9e9167" d=" M 60.72 73.12 C 62.53 72.71 64.49 71.71 66.27 72.81 C 65.92 76.98 68.68 82.59 64.16 85.10 C 65.61 80.45 64.46 76.17 60.72 73.12 Z" />
<path fill="#ccaf6c" d=" M 66.27 72.81 C 68.43 72.62 70.59 72.38 72.75 72.09 C 76.99 73.60 79.55 77.50 83.11 80.02 C 87.42 80.20 91.47 78.50 95.70 78.13 C 97.31 80.75 98.11 83.74 98.16 86.81 C 86.65 82.41 86.66 97.50 90.40 103.62 C 93.39 106.80 95.64 100.28 99.28 101.19 C 100.28 101.22 101.28 101.25 102.28 101.28 C 103.18 101.68 104.09 102.05 105.01 102.41 C 108.27 103.21 111.72 102.77 115.06 102.88 C 116.93 109.28 128.62 96.58 124.81 107.84 C 124.73 115.87 114.19 112.88 108.97 113.97 C 105.58 112.74 102.11 111.27 98.45 111.25 C 97.20 115.87 92.11 118.89 88.61 114.41 C 85.86 108.97 81.00 103.99 81.57 97.39 C 84.27 94.95 84.31 91.59 82.26 88.67 C 75.09 88.02 67.60 95.05 59.97 96.14 C 61.47 94.08 65.02 87.94 59.79 89.79 L 60.00 88.99 C 61.39 87.70 62.78 86.41 64.16 85.10 C 68.68 82.59 65.92 76.98 66.27 72.81 Z" />
<path fill="#7cd3b5" d=" M 91.95 75.98 C 91.91 63.26 107.70 87.04 110.00 75.15 C 110.34 74.89 111.03 74.36 111.38 74.10 C 113.16 77.65 109.62 82.09 105.41 79.59 C 100.27 79.73 96.64 71.12 91.95 75.98 Z" />
<path fill="#413722" d=" M 50.76 78.89 C 49.03 76.62 52.53 74.17 54.06 72.70 C 55.73 72.80 59.06 73.01 60.72 73.12 C 64.46 76.17 65.61 80.45 64.16 85.10 C 62.78 86.41 61.39 87.70 60.00 88.99 C 57.15 89.71 54.18 89.94 51.34 89.05 C 53.32 86.71 52.13 83.67 51.90 80.87 L 51.95 80.09 C 53.56 77.58 54.27 78.12 54.20 81.04 C 60.06 77.77 53.12 73.62 50.76 78.89 Z" />
<path fill="#83b27d" d=" M 117.66 73.33 C 125.09 74.58 132.74 74.20 140.19 73.27 C 140.66 73.22 141.59 73.12 142.06 73.08 L 142.16 73.98 C 135.38 77.06 128.09 74.99 121.01 75.04 C 119.72 74.82 118.26 74.69 117.66 73.33 Z" />
<path fill="#9a6220" d=" M 177.25 73.19 C 180.37 73.68 186.09 76.78 181.17 79.39 C 183.85 82.39 186.33 91.16 180.20 91.96 C 178.11 88.65 176.80 84.79 174.07 81.96 C 176.95 79.46 173.23 75.02 177.25 73.19 Z" />
<path fill="#76ddbb" d=" M 79.87 73.99 C 82.96 77.63 87.67 77.15 91.95 75.98 C 87.78 78.93 81.16 80.51 79.87 73.99 Z" />
<path fill="#bb9c54" d=" M 121.01 75.04 C 128.09 74.99 135.38 77.06 142.16 73.98 C 146.85 79.69 137.15 80.54 140.61 84.71 C 133.32 85.09 134.07 93.90 127.68 95.28 C 126.43 95.77 125.24 96.35 124.03 96.90 L 124.19 96.04 C 128.78 88.85 116.85 83.24 110.64 82.12 C 113.89 81.51 115.35 79.26 116.03 76.22 C 118.68 76.81 123.91 79.74 121.01 75.04 Z" />
<path fill="#c99d47" d=" M 161.08 73.76 C 170.33 77.97 174.42 88.87 180.11 96.81 C 189.99 95.22 184.26 82.37 184.61 75.63 C 188.94 82.35 189.96 90.53 190.82 98.31 C 191.67 101.31 193.11 105.64 189.53 107.44 C 186.94 108.19 186.49 110.74 185.87 112.98 C 178.36 108.51 174.32 99.48 169.65 92.38 C 169.63 85.01 165.00 79.49 161.08 73.76 Z" />
<path fill="#e8e1b8" d=" M 32.20 81.18 C 35.75 76.18 42.81 74.41 46.75 80.32 C 48.11 87.05 38.77 90.46 40.61 97.11 C 38.21 105.10 48.34 99.02 49.40 104.87 C 48.99 105.05 48.18 105.43 47.77 105.62 C 44.19 106.75 40.06 107.51 37.79 110.84 C 37.52 111.33 36.97 112.32 36.69 112.81 C 36.20 115.73 35.96 118.72 35.33 121.63 L 34.20 121.84 C 31.46 121.52 30.75 123.90 29.71 125.85 C 25.84 126.42 22.00 127.12 18.18 127.97 C 16.25 124.97 17.90 121.17 18.10 117.90 C 21.84 118.04 25.53 118.75 29.26 118.91 C 26.19 116.03 21.71 117.30 17.88 116.99 C 24.08 112.92 20.18 105.17 23.15 99.13 C 25.68 92.91 29.26 87.20 32.20 81.18 Z" />
<path fill="#857f6c" d=" M 50.76 78.89 C 53.12 73.62 60.06 77.77 54.20 81.04 C 54.27 78.12 53.56 77.58 51.95 80.09 C 51.65 79.79 51.05 79.19 50.76 78.89 Z" />
<path fill="#d3cba5" d=" M 0.00 81.07 C 7.87 79.88 15.58 76.75 23.63 77.28 C 27.61 78.38 27.26 85.56 32.20 81.18 C 29.26 87.20 25.68 92.91 23.15 99.13 C 20.18 105.17 24.08 112.92 17.88 116.99 C 14.03 117.72 19.12 114.22 17.79 112.34 C 15.94 110.75 14.01 109.20 11.86 108.02 C 7.49 107.47 4.54 113.69 0.00 111.03 L 0.00 81.07 Z" />
<path fill="#938260" d=" M 49.74 81.98 C 49.64 86.57 51.95 87.70 51.90 80.87 C 52.13 83.67 53.32 86.71 51.34 89.05 C 54.18 89.94 57.15 89.71 60.00 88.99 L 59.79 89.79 C 57.03 91.54 53.43 94.52 50.31 91.70 C 46.90 89.93 45.25 82.87 49.74 81.98 Z" />
<path fill="#2f2818" d=" M 100.33 87.96 C 104.17 86.76 107.02 83.75 110.64 82.12 C 116.85 83.24 128.78 88.85 124.19 96.04 C 119.65 93.19 118.06 103.80 111.97 100.04 C 108.10 101.15 108.18 96.52 107.73 93.94 C 107.35 88.39 111.55 90.59 114.06 88.26 C 109.00 84.43 105.08 88.11 102.59 92.92 C 99.85 96.58 107.52 99.22 105.01 102.41 C 104.09 102.05 103.18 101.68 102.28 101.28 C 96.60 98.72 94.62 91.68 100.33 87.96 Z" />
<path fill="#aaa897" d=" M 102.59 92.92 C 105.08 88.11 109.00 84.43 114.06 88.26 C 111.55 90.59 107.35 88.39 107.73 93.94 C 105.83 96.49 103.12 96.40 102.59 92.92 Z" />
<path fill="#b8954f" d=" M 90.40 103.62 C 86.66 97.50 86.65 82.41 98.16 86.81 C 98.70 87.10 99.79 87.68 100.33 87.96 C 97.81 90.12 86.94 92.49 93.55 95.57 C 96.13 96.65 97.48 99.22 99.28 101.19 C 95.64 100.28 93.39 106.80 90.40 103.62 Z" />
<path fill="#856935" d=" M 93.55 95.57 C 86.94 92.49 97.81 90.12 100.33 87.96 C 94.62 91.68 96.60 98.72 102.28 101.28 C 101.28 101.25 100.28 101.22 99.28 101.19 C 97.48 99.22 96.13 96.65 93.55 95.57 Z" />
<path fill="#6f684f" d=" M 105.01 102.41 C 107.52 99.22 99.85 96.58 102.59 92.92 C 103.12 96.40 105.83 96.49 107.73 93.94 C 108.18 96.52 108.10 101.15 111.97 100.04 C 118.06 103.80 119.65 93.19 124.19 96.04 L 124.03 96.90 L 123.85 97.69 C 120.88 99.36 118.34 101.78 115.06 102.88 C 111.72 102.77 108.27 103.21 105.01 102.41 Z" />
<path fill="#c7b075" d=" M 127.68 95.28 C 134.17 97.54 140.70 92.18 147.25 94.84 C 153.13 97.23 159.82 94.98 165.67 97.34 C 169.65 102.72 177.16 105.85 177.99 113.08 C 180.62 118.96 174.98 124.31 171.41 128.36 C 171.72 134.20 169.41 140.43 171.98 145.93 C 170.38 148.20 167.50 150.46 171.28 152.26 C 168.46 155.65 163.92 156.47 160.10 158.24 C 156.86 152.84 169.72 151.44 165.58 144.44 C 162.25 142.25 164.42 139.59 165.98 137.01 C 156.01 132.79 145.21 140.50 138.44 147.40 C 136.52 149.23 136.32 145.34 136.03 144.07 C 137.82 138.58 144.66 137.31 148.19 133.20 C 150.89 129.42 155.51 129.23 159.65 129.70 C 162.62 123.52 170.81 124.89 174.92 119.75 C 176.30 113.27 171.91 108.40 168.06 103.96 C 164.94 97.37 155.90 99.93 150.12 99.81 C 145.43 98.20 140.57 96.18 135.51 97.33 C 131.42 96.94 127.44 101.20 123.85 97.69 L 124.03 96.90 C 125.24 96.35 126.43 95.77 127.68 95.28 Z" />
<path fill="#c9b886" d=" M 135.51 97.33 C 140.57 96.18 145.43 98.20 150.12 99.81 C 155.90 99.93 164.94 97.37 168.06 103.96 C 171.91 108.40 176.30 113.27 174.92 119.75 C 170.81 124.89 162.62 123.52 159.65 129.70 C 155.51 129.23 150.89 129.42 148.19 133.20 C 144.66 137.31 137.82 138.58 136.03 144.07 C 136.32 145.34 136.52 149.23 138.44 147.40 C 145.21 140.50 156.01 132.79 165.98 137.01 C 164.42 139.59 162.25 142.25 165.58 144.44 C 169.72 151.44 156.86 152.84 160.10 158.24 C 153.35 161.41 146.88 165.15 140.06 168.18 C 138.51 168.30 135.41 168.55 133.86 168.67 C 126.46 170.07 120.62 175.66 113.23 177.26 C 110.79 177.12 105.98 177.61 109.46 174.59 C 113.52 174.30 113.41 168.81 117.42 168.55 C 124.67 170.27 119.69 163.83 122.62 161.32 C 120.23 158.13 113.32 157.40 115.14 152.25 C 119.56 149.72 122.80 146.09 124.11 141.05 C 120.38 139.49 118.88 140.09 119.60 142.83 C 115.83 141.68 110.25 143.05 111.73 148.59 C 106.87 149.67 103.51 145.18 101.69 141.33 C 97.21 138.94 94.45 134.28 89.94 132.00 C 87.40 132.65 84.98 134.23 82.27 133.52 C 82.45 130.54 82.58 127.56 82.66 124.57 C 87.38 123.30 92.79 126.72 96.80 124.13 C 101.06 127.62 94.94 126.06 96.09 129.89 C 97.56 138.48 108.49 134.65 114.61 135.72 C 117.07 136.71 117.59 132.70 119.86 134.03 C 135.75 139.07 146.74 124.62 160.90 120.93 C 166.33 120.91 169.76 108.64 162.03 111.87 C 163.96 107.74 162.49 102.57 157.17 102.99 C 156.55 108.52 148.86 116.31 145.04 109.18 C 146.50 107.26 148.08 105.39 148.98 103.12 C 145.15 101.44 141.28 99.31 137.06 98.97 C 130.29 102.32 128.75 110.32 126.76 116.80 C 124.15 121.29 119.48 117.14 116.20 115.83 C 113.91 114.83 111.36 114.63 108.97 113.97 C 114.19 112.88 124.73 115.87 124.81 107.84 C 128.62 96.58 116.93 109.28 115.06 102.88 C 118.34 101.78 120.88 99.36 123.85 97.69 C 127.44 101.20 131.42 96.94 135.51 97.33 Z" />
<path fill="#d2c69a" d=" M 126.76 116.80 C 128.75 110.32 130.29 102.32 137.06 98.97 C 141.28 99.31 145.15 101.44 148.98 103.12 C 148.08 105.39 146.50 107.26 145.04 109.18 C 148.86 116.31 156.55 108.52 157.17 102.99 C 162.49 102.57 163.96 107.74 162.03 111.87 C 169.76 108.64 166.33 120.91 160.90 120.93 C 146.74 124.62 135.75 139.07 119.86 134.03 C 117.59 132.70 117.07 136.71 114.61 135.72 C 108.49 134.65 97.56 138.48 96.09 129.89 C 94.94 126.06 101.06 127.62 96.80 124.13 C 98.89 121.21 100.43 117.29 104.11 116.08 C 108.14 115.86 112.21 116.86 116.20 115.83 C 119.48 117.14 124.15 121.29 126.76 116.80 Z" />
<path fill="#bfb896" d=" M 47.77 105.62 C 48.18 105.43 48.99 105.05 49.40 104.87 C 64.76 101.13 75.07 114.11 82.66 124.57 C 82.58 127.56 82.45 130.54 82.27 133.52 C 77.11 134.05 71.12 133.43 66.80 136.74 C 65.07 133.32 64.61 130.92 69.11 132.91 C 66.50 126.96 69.83 120.70 68.34 114.74 C 65.35 111.90 61.96 109.28 58.06 107.79 C 54.67 106.92 51.22 106.25 47.77 105.62 Z" />
<path fill="#7a7762" d=" M 37.79 110.84 C 40.06 107.51 44.19 106.75 47.77 105.62 C 51.22 106.25 54.67 106.92 58.06 107.79 C 56.81 109.41 55.95 111.50 53.97 112.38 C 49.04 109.47 43.20 110.89 37.79 110.84 Z" />
<path fill="#c3b587" d=" M 0.00 111.03 C 4.54 113.69 7.49 107.47 11.86 108.02 C 14.01 109.20 15.94 110.75 17.79 112.34 C 19.12 114.22 14.03 117.72 17.88 116.99 C 21.71 117.30 26.19 116.03 29.26 118.91 C 25.53 118.75 21.84 118.04 18.10 117.90 C 11.39 126.47 20.61 142.61 13.82 150.33 C 9.24 149.63 4.62 149.19 0.00 148.86 L 0.00 123.07 C 1.98 122.58 3.97 122.17 5.94 121.67 C 6.43 117.87 2.24 116.15 0.00 113.85 L 0.00 111.03 Z" />
<path fill="#554f3f" d=" M 53.97 112.38 C 55.95 111.50 56.81 109.41 58.06 107.79 C 61.96 109.28 65.35 111.90 68.34 114.74 C 68.49 120.81 65.06 125.94 62.82 130.97 C 60.43 131.57 58.54 132.78 59.65 135.47 C 63.64 137.54 62.86 142.62 64.96 145.98 C 59.35 143.44 52.79 143.61 47.72 139.60 C 44.89 140.44 37.75 140.03 41.82 144.06 C 43.37 150.35 49.84 150.81 53.43 155.09 C 47.36 158.55 45.07 150.27 39.77 150.07 C 37.40 147.70 36.48 144.39 38.07 141.22 C 39.88 138.66 34.93 135.49 37.43 133.42 C 39.05 132.34 38.74 130.31 38.90 128.64 C 41.86 131.52 45.60 139.09 50.07 135.12 C 52.04 136.86 55.54 140.66 57.37 136.78 C 56.78 134.83 56.58 132.81 56.71 130.78 C 61.26 127.68 70.29 121.31 64.42 115.61 C 62.35 111.71 57.22 114.27 53.97 112.38 Z" />
<path fill="#202019" d=" M 37.79 110.84 C 43.20 110.89 49.04 109.47 53.97 112.38 C 57.22 114.27 62.35 111.71 64.42 115.61 C 70.29 121.31 61.26 127.68 56.71 130.78 C 53.32 132.09 49.95 134.04 46.18 133.56 C 43.94 132.14 42.49 129.31 44.24 127.11 C 41.69 123.46 46.26 114.56 40.75 121.05 C 37.47 119.72 36.63 116.00 36.69 112.81 C 36.97 112.32 37.52 111.33 37.79 110.84 Z" />
<path fill="#7e7964" d=" M 35.33 121.63 C 35.96 118.72 36.20 115.73 36.69 112.81 C 36.63 116.00 37.47 119.72 40.75 121.05 C 41.11 121.25 41.82 121.65 42.18 121.85 C 33.61 118.79 38.08 125.45 38.90 128.64 C 38.74 130.31 39.05 132.34 37.43 133.42 C 34.93 135.49 39.88 138.66 38.07 141.22 C 33.91 142.34 34.05 138.14 33.49 135.29 C 34.79 130.88 36.76 126.29 35.33 121.63 Z" />
<path fill="#918944" d=" M 0.00 113.85 C 2.24 116.15 6.43 117.87 5.94 121.67 C 3.97 122.17 1.98 122.58 0.00 123.07 L 0.00 113.85 Z" />
<path fill="#1d0605" d=" M 189.89 130.39 C 197.60 127.39 192.08 116.37 198.92 113.82 C 204.87 119.61 206.93 126.48 207.26 134.76 C 206.85 134.39 206.03 133.64 205.62 133.26 C 200.65 136.97 195.13 141.12 193.46 147.39 C 192.04 152.47 186.07 154.22 183.85 158.88 C 181.44 162.68 177.81 166.74 172.81 165.95 C 180.44 162.00 183.93 153.80 190.76 148.80 C 191.09 138.70 203.85 136.01 204.83 126.12 C 204.75 123.11 203.31 121.01 200.08 122.18 C 198.01 122.63 198.40 125.78 199.00 127.36 C 196.52 132.59 189.96 134.38 188.20 140.07 C 185.32 147.84 178.40 153.02 173.56 159.57 C 165.16 161.11 156.57 162.92 148.83 166.89 C 136.06 176.26 119.79 179.08 104.76 181.80 C 96.56 189.32 106.85 202.19 98.94 209.90 C 95.59 213.02 91.95 215.79 89.84 220.00 L 86.80 220.00 C 86.72 211.76 94.58 206.56 98.43 200.02 C 100.95 195.06 92.22 192.51 93.32 187.30 C 95.13 178.32 106.42 179.34 113.23 177.26 C 120.62 175.66 126.46 170.07 133.86 168.67 C 135.41 168.55 138.51 168.30 140.06 168.18 C 146.88 165.15 153.35 161.41 160.10 158.24 C 163.92 156.47 168.46 155.65 171.28 152.26 C 173.13 150.39 174.59 148.18 176.19 146.10 C 182.16 142.70 188.28 137.41 189.89 130.39 Z" />
<path fill="#817b68" d=" M 68.34 114.74 C 69.83 120.70 66.50 126.96 69.11 132.91 C 64.61 130.92 65.07 133.32 66.80 136.74 C 58.88 140.27 74.68 139.49 71.26 142.74 C 65.73 140.33 68.25 144.12 69.40 147.64 C 68.24 147.45 67.09 147.26 65.94 147.07 C 65.70 146.80 65.21 146.25 64.96 145.98 C 62.86 142.62 63.64 137.54 59.65 135.47 C 58.54 132.78 60.43 131.57 62.82 130.97 C 65.06 125.94 68.49 120.81 68.34 114.74 Z" />
<path fill="#ddd0a3" d=" M 13.82 150.33 C 20.61 142.61 11.39 126.47 18.10 117.90 C 17.90 121.17 16.25 124.97 18.18 127.97 C 22.00 127.12 25.84 126.42 29.71 125.85 C 30.75 123.90 31.46 121.52 34.20 121.84 C 34.01 127.62 28.44 131.88 30.06 137.73 C 27.99 142.56 36.50 141.17 35.76 145.98 C 35.28 148.73 30.52 151.20 33.27 153.70 C 37.18 158.68 32.44 165.54 33.14 171.43 C 24.51 170.40 27.57 157.33 18.92 158.87 C 26.52 158.70 18.43 149.97 13.82 150.33 Z" />
<path fill="#363429" d=" M 40.75 121.05 C 46.26 114.56 41.69 123.46 44.24 127.11 C 42.49 129.31 43.94 132.14 46.18 133.56 C 49.95 134.04 53.32 132.09 56.71 130.78 C 56.58 132.81 56.78 134.83 57.37 136.78 C 55.54 140.66 52.04 136.86 50.07 135.12 C 45.60 139.09 41.86 131.52 38.90 128.64 C 38.08 125.45 33.61 118.79 42.18 121.85 C 41.82 121.65 41.11 121.25 40.75 121.05 Z" />
<path fill="#ba984c" d=" M 173.54 137.48 C 175.87 130.27 177.77 122.18 184.79 117.98 C 188.74 121.10 185.79 127.30 189.89 130.39 C 188.28 137.41 182.16 142.70 176.19 146.10 C 174.33 143.60 170.86 141.25 173.54 137.48 Z" />
<path fill="#c3b17e" d=" M 34.20 121.84 L 35.33 121.63 C 36.76 126.29 34.79 130.88 33.49 135.29 C 34.05 138.14 33.91 142.34 38.07 141.22 C 36.48 144.39 37.40 147.70 39.77 150.07 C 43.43 157.95 50.23 163.61 59.06 162.93 C 61.44 168.07 74.29 164.55 66.97 171.00 C 73.53 176.87 68.26 185.70 70.50 192.69 C 69.39 193.54 68.21 194.32 67.06 195.13 C 66.99 193.30 66.85 189.63 66.78 187.80 C 67.74 185.55 70.88 181.95 67.66 180.22 C 62.79 179.22 57.82 179.01 52.88 178.83 L 52.85 178.10 C 52.03 174.24 57.36 172.04 54.74 168.32 C 46.23 163.50 37.66 156.06 35.76 145.98 C 36.50 141.17 27.99 142.56 30.06 137.73 C 28.44 131.88 34.01 127.62 34.20 121.84 Z" />
<path fill="#a2585b" d=" M 199.00 127.36 C 198.40 125.78 198.01 122.63 200.08 122.18 C 200.32 123.96 200.28 125.94 199.00 127.36 Z" />
<path fill="#990d0f" d=" M 200.08 122.18 C 203.31 121.01 204.75 123.11 204.83 126.12 C 203.85 136.01 191.09 138.70 190.76 148.80 C 183.93 153.80 180.44 162.00 172.81 165.95 C 154.56 166.75 141.24 180.76 123.60 183.59 C 118.70 185.65 111.91 184.02 108.17 188.30 C 110.06 200.10 107.77 213.86 96.49 220.00 L 89.84 220.00 C 91.95 215.79 95.59 213.02 98.94 209.90 C 106.85 202.19 96.56 189.32 104.76 181.80 C 119.79 179.08 136.06 176.26 148.83 166.89 C 156.57 162.92 165.16 161.11 173.56 159.57 C 178.40 153.02 185.32 147.84 188.20 140.07 C 189.96 134.38 196.52 132.59 199.00 127.36 C 200.28 125.94 200.32 123.96 200.08 122.18 Z" />
<path fill="#bda76f" d=" M 82.27 133.52 C 84.98 134.23 87.40 132.65 89.94 132.00 C 94.45 134.28 97.21 138.94 101.69 141.33 C 103.51 145.18 106.87 149.67 111.73 148.59 C 110.25 143.05 115.83 141.68 119.60 142.83 C 118.88 140.09 120.38 139.49 124.11 141.05 C 122.80 146.09 119.56 149.72 115.14 152.25 C 113.32 157.40 120.23 158.13 122.62 161.32 C 119.69 163.83 124.67 170.27 117.42 168.55 C 113.41 168.81 113.52 174.30 109.46 174.59 C 105.98 177.61 110.79 177.12 113.23 177.26 C 106.42 179.34 95.13 178.32 93.32 187.30 C 92.22 192.51 100.95 195.06 98.43 200.02 C 94.38 191.95 82.56 192.27 76.13 197.13 C 73.48 200.06 69.09 196.72 66.69 200.28 C 66.82 198.56 66.95 196.85 67.06 195.13 C 68.21 194.32 69.39 193.54 70.50 192.69 C 68.26 185.70 73.53 176.87 66.97 171.00 C 74.29 164.55 61.44 168.07 59.06 162.93 C 63.24 158.84 67.19 157.54 71.68 161.60 C 74.01 158.36 76.62 159.56 79.32 161.61 C 86.85 160.86 93.47 155.97 98.38 150.35 C 98.66 149.49 100.02 147.03 98.31 147.10 C 88.54 143.65 77.99 154.27 69.40 147.64 C 68.25 144.12 65.73 140.33 71.26 142.74 C 74.68 139.49 58.88 140.27 66.80 136.74 C 71.12 133.43 77.11 134.05 82.27 133.52 Z" />
<path fill="#050203" d=" M 193.46 147.39 C 195.13 141.12 200.65 136.97 205.62 133.26 C 206.03 133.64 206.85 134.39 207.26 134.76 C 207.50 135.26 207.97 136.26 208.21 136.76 C 208.26 139.60 208.06 142.49 208.61 145.31 C 208.99 150.98 211.81 156.06 212.40 161.69 C 212.25 165.13 212.05 168.59 212.05 172.05 C 203.22 174.84 194.64 178.25 186.32 182.27 C 178.07 182.38 173.70 190.24 166.36 192.41 C 156.65 194.96 151.14 204.17 142.38 208.40 C 138.36 210.86 137.49 215.95 135.71 220.00 L 96.49 220.00 C 107.77 213.86 110.06 200.10 108.17 188.30 C 111.91 184.02 118.70 185.65 123.60 183.59 C 141.24 180.76 154.56 166.75 172.81 165.95 C 177.81 166.74 181.44 162.68 183.85 158.88 C 186.07 154.22 192.04 152.47 193.46 147.39 Z" />
<path fill="#837e6a" d=" M 208.21 136.76 C 209.62 139.39 208.59 142.44 208.61 145.31 C 208.06 142.49 208.26 139.60 208.21 136.76 Z" />
<path fill="#201d13" d=" M 41.82 144.06 C 37.75 140.03 44.89 140.44 47.72 139.60 C 52.79 143.61 59.35 143.44 64.96 145.98 C 65.21 146.25 65.70 146.80 65.94 147.07 C 67.30 148.66 68.73 150.21 70.04 151.86 C 60.29 151.04 51.71 144.83 41.82 144.06 Z" />
<path fill="#473e28" d=" M 41.82 144.06 C 51.71 144.83 60.29 151.04 70.04 151.86 C 68.73 150.21 67.30 148.66 65.94 147.07 C 67.09 147.26 68.24 147.45 69.40 147.64 C 77.99 154.27 88.54 143.65 98.31 147.10 C 91.53 155.80 80.61 152.49 71.76 156.54 C 65.72 156.67 59.59 153.43 53.43 155.09 C 49.84 150.81 43.37 150.35 41.82 144.06 Z" />
<path fill="#d3c08c" d=" M 33.27 153.70 C 30.52 151.20 35.28 148.73 35.76 145.98 C 37.66 156.06 46.23 163.50 54.74 168.32 C 57.36 172.04 52.03 174.24 52.85 178.10 C 51.24 177.57 49.56 177.87 47.96 178.25 C 42.90 176.15 36.35 176.45 33.14 171.43 C 32.44 165.54 37.18 158.68 33.27 153.70 Z" />
<path fill="#8f7c53" d=" M 98.31 147.10 C 100.02 147.03 98.66 149.49 98.38 150.35 C 93.47 155.97 86.85 160.86 79.32 161.61 C 76.62 159.56 74.01 158.36 71.68 161.60 C 67.19 157.54 63.24 158.84 59.06 162.93 C 50.23 163.61 43.43 157.95 39.77 150.07 C 45.07 150.27 47.36 158.55 53.43 155.09 C 59.59 153.43 65.72 156.67 71.76 156.54 C 80.61 152.49 91.53 155.80 98.31 147.10 Z" />
<path fill="#eae0b4" d=" M 0.00 148.86 C 4.62 149.19 9.24 149.63 13.82 150.33 C 18.43 149.97 26.52 158.70 18.92 158.87 C 18.30 160.10 17.85 161.42 17.59 162.77 C 17.50 164.26 17.34 167.23 17.26 168.72 C 17.00 176.21 16.91 183.71 16.82 191.22 C 15.28 182.63 8.30 175.94 0.00 173.75 L 0.00 148.86 Z" />
<path fill="#240805" d=" M 18.92 158.87 C 27.57 157.33 24.51 170.40 33.14 171.43 C 36.35 176.45 42.90 176.15 47.96 178.25 C 49.38 179.32 51.24 179.48 52.88 178.83 C 57.82 179.01 62.79 179.22 67.66 180.22 C 70.88 181.95 67.74 185.55 66.78 187.80 C 65.95 191.82 65.22 196.30 66.69 200.28 C 69.25 206.55 68.45 213.50 70.14 220.00 L 64.20 220.00 C 66.54 210.55 62.96 201.00 64.39 191.52 C 63.25 189.50 67.02 184.51 63.63 183.28 C 54.39 181.75 43.31 183.74 35.39 177.63 C 33.28 173.72 28.58 174.09 25.33 171.68 C 21.67 169.53 22.02 164.02 17.59 162.77 C 17.85 161.42 18.30 160.10 18.92 158.87 Z" />
<path fill="#6a6041" d=" M 212.40 161.69 C 213.21 165.01 213.01 168.42 213.04 171.81 L 212.05 172.05 C 212.05 168.59 212.25 165.13 212.40 161.69 Z" />
<path fill="#9a0e0f" d=" M 17.26 168.72 C 17.34 167.23 17.50 164.26 17.59 162.77 C 22.02 164.02 21.67 169.53 25.33 171.68 C 28.58 174.09 33.28 173.72 35.39 177.63 C 43.31 183.74 54.39 181.75 63.63 183.28 C 67.02 184.51 63.25 189.50 64.39 191.52 C 62.96 201.00 66.54 210.55 64.20 220.00 L 60.88 220.00 C 60.40 217.10 60.00 214.19 59.65 211.28 C 57.17 204.60 66.81 184.82 53.77 188.18 C 39.43 190.04 29.24 179.61 18.12 172.87 C 17.86 171.48 17.56 170.10 17.26 168.72 Z" />
<path fill="#706959" d=" M 133.86 168.67 C 135.41 168.55 138.51 168.30 140.06 168.18 C 138.51 168.30 135.41 168.55 133.86 168.67 Z" />
<path fill="#705e4c" d=" M 17.26 168.72 C 17.56 170.10 17.86 171.48 18.12 172.87 C 16.78 178.84 20.42 186.82 16.84 191.98 L 16.82 191.22 C 16.91 183.71 17.00 176.21 17.26 168.72 Z" />
<path fill="#f1f1f0" d=" M 186.32 182.27 C 194.64 178.25 203.22 174.84 212.05 172.05 L 213.04 171.81 C 215.37 172.15 217.68 172.65 220.00 173.12 L 220.00 174.81 C 217.65 176.13 215.37 177.56 213.13 179.06 C 210.33 179.17 207.42 178.63 204.83 179.86 C 190.42 184.21 177.82 192.28 165.19 200.20 C 163.70 199.55 162.07 200.56 162.12 202.21 C 155.12 206.25 149.58 212.54 146.52 220.00 L 135.71 220.00 C 137.49 215.95 138.36 210.86 142.38 208.40 C 151.14 204.17 156.65 194.96 166.36 192.41 C 173.70 190.24 178.07 182.38 186.32 182.27 Z" />
<path fill="#040102" d=" M 18.12 172.87 C 29.24 179.61 39.43 190.04 53.77 188.18 C 64.61 189.38 56.23 204.32 59.65 211.28 C 60.00 214.19 60.40 217.10 60.88 220.00 L 0.00 220.00 L 0.00 212.46 C 6.13 206.06 9.41 197.26 16.84 191.98 C 20.42 186.82 16.78 178.84 18.12 172.87 Z" />
<path fill="#e2d09d" d=" M 0.00 173.75 C 8.30 175.94 15.28 182.63 16.82 191.22 L 16.84 191.98 C 9.41 197.26 6.13 206.06 0.00 212.46 L 0.00 173.75 Z" />
<path fill="#0d0d0d" d=" M 213.13 179.06 C 215.37 177.56 217.65 176.13 220.00 174.81 L 220.00 181.58 C 215.77 185.60 209.68 184.38 204.63 186.57 C 195.77 189.90 187.18 194.03 179.24 199.18 C 177.70 199.14 176.48 200.54 176.97 202.06 C 173.92 203.91 170.48 205.28 167.94 207.86 C 164.32 208.94 159.95 209.84 159.04 214.17 C 156.87 216.08 154.72 218.03 152.60 220.00 L 146.52 220.00 C 149.58 212.54 155.12 206.25 162.12 202.21 C 163.50 202.27 164.64 201.43 165.19 200.20 C 177.82 192.28 190.42 184.21 204.83 179.86 C 207.59 179.66 210.76 180.82 213.13 179.06 Z" />
<path fill="#726852" d=" M 47.96 178.25 C 49.56 177.87 51.24 177.57 52.85 178.10 L 52.88 178.83 C 51.24 179.48 49.38 179.32 47.96 178.25 Z" />
<path fill="#535353" d=" M 204.83 179.86 C 207.42 178.63 210.33 179.17 213.13 179.06 C 210.76 180.82 207.59 179.66 204.83 179.86 Z" />
<path fill="#fcfcfc" d=" M 204.63 186.57 C 209.68 184.38 215.77 185.60 220.00 181.58 L 220.00 220.00 L 152.60 220.00 C 154.72 218.03 156.87 216.08 159.04 214.17 C 161.91 211.93 165.41 210.51 167.94 207.86 C 170.48 205.28 173.92 203.91 176.97 202.06 C 178.72 202.43 179.61 200.68 179.24 199.18 C 187.18 194.03 195.77 189.90 204.63 186.57 Z" />
<path fill="#560606" d=" M 53.77 188.18 C 66.81 184.82 57.17 204.60 59.65 211.28 C 56.23 204.32 64.61 189.38 53.77 188.18 Z" />
<path fill="#865f3f" d=" M 66.69 200.28 C 65.22 196.30 65.95 191.82 66.78 187.80 C 66.85 189.63 66.99 193.30 67.06 195.13 C 66.95 196.85 66.82 198.56 66.69 200.28 Z" />
<path fill="#b69c59" d=" M 76.13 197.13 C 82.56 192.27 94.38 191.95 98.43 200.02 C 94.58 206.56 86.72 211.76 86.80 220.00 L 70.14 220.00 C 68.45 213.50 69.25 206.55 66.69 200.28 C 69.09 196.72 73.48 200.06 76.13 197.13 Z" />
<path fill="#828282" d=" M 176.97 202.06 C 176.48 200.54 177.70 199.14 179.24 199.18 C 179.61 200.68 178.72 202.43 176.97 202.06 Z" />
<path fill="#999999" d=" M 162.12 202.21 C 162.07 200.56 163.70 199.55 165.19 200.20 C 164.64 201.43 163.50 202.27 162.12 202.21 Z" />
<path fill="#8e8e8e" d=" M 159.04 214.17 C 159.95 209.84 164.32 208.94 167.94 207.86 C 165.41 210.51 161.91 211.93 159.04 214.17 Z" />
</svg>
